<svg width="140" height="40" viewBox="0 0 140 40" fill="none" xmlns="http://www.w3.org/2000/svg">
<g clip-path="url(#clip0_1_278)">
<rect width="140" height="44.6432" transform="translate(0 -3.82159)" fill="url(#paint0_radial_1_278)"/>
<path fill-rule="evenodd" clip-rule="evenodd" d="M58.1947 28.3263C54.0558 31.261 48.0553 32.8216 42.8878 32.8216C35.6462 32.8216 29.1247 30.2496 24.1895 25.9684C23.8025 25.6319 24.1477 25.1728 24.6134 25.4331C29.9375 28.4098 36.5225 30.2027 43.3225 30.2027C47.91 30.2027 52.953 29.2877 57.5932 27.3967C58.293 27.112 58.8799 27.8399 58.1947 28.3263Z" fill="#010000"/>
<path fill-rule="evenodd" clip-rule="evenodd" d="M59.9174 26.4365C59.3875 25.7855 56.4181 26.1281 55.0837 26.2817C54.6795 26.3286 54.6167 25.9891 54.9809 25.7434C57.3501 24.1444 61.2327 24.6059 61.6838 25.1417C62.1381 25.6812 61.5639 29.4212 59.3444 31.2055C59.0024 31.4798 58.6775 31.3335 58.8292 30.9714C59.3292 29.7723 60.4472 27.0888 59.9174 26.4365Z" fill="#010000"/>
<path fill-rule="evenodd" clip-rule="evenodd" d="M55.1776 14.4486V12.8953C55.1789 12.6588 55.3641 12.5015 55.5875 12.5021L62.8348 12.5015C63.0664 12.5015 63.253 12.663 63.253 12.8935V14.2255C63.2504 14.4492 63.0544 14.7406 62.7073 15.2033L58.9529 20.3532C60.3463 20.3222 61.8202 20.5227 63.0867 21.2061C63.3722 21.3603 63.449 21.5889 63.4712 21.8126V23.4702C63.4712 23.6988 63.2111 23.9627 62.937 23.8256C60.7067 22.7027 57.7467 22.5801 55.2797 23.839C55.0278 23.9682 54.7645 23.7073 54.7645 23.4787V21.9029C54.7645 21.6511 54.7696 21.2195 55.0342 20.8354L59.3831 14.8406L55.5964 14.84C55.3648 14.84 55.1789 14.6815 55.1776 14.4486Z" fill="#010000"/>
<path fill-rule="evenodd" clip-rule="evenodd" d="M28.7415 24.1517H26.5366C26.3265 24.1389 26.159 23.9877 26.1419 23.7939L26.1438 12.9215C26.1438 12.7045 26.3342 12.5308 26.5696 12.5308L28.6228 12.5301C28.8373 12.5405 29.0099 12.6966 29.0232 12.8953V14.3145H29.0651C29.6 12.9416 30.6082 12.3009 31.9667 12.3009C33.3455 12.3009 34.2103 12.9416 34.8277 14.3145C35.3626 12.9416 36.577 12.3009 37.8733 12.3009C38.7997 12.3009 39.8079 12.6673 40.4253 13.4909C41.1252 14.4065 40.9818 15.733 40.9818 16.8998L40.9792 23.761C40.9792 23.9774 40.7895 24.1517 40.5541 24.1517H38.3524C38.1303 24.1383 37.9564 23.9701 37.9564 23.7616L37.9558 17.9977C37.9558 17.5405 37.997 16.3969 37.8936 15.9622C37.7293 15.2295 37.2356 15.0234 36.598 15.0234C36.0624 15.0234 35.5066 15.3667 35.2801 15.9153C35.0536 16.4652 35.0745 17.3796 35.0745 17.9977V23.761C35.0745 23.9774 34.8841 24.1517 34.6494 24.1517H32.447C32.2256 24.1383 32.0511 23.9701 32.0511 23.7616L32.0485 17.9977C32.0485 16.7852 32.2547 15.0015 30.6907 15.0015C29.1057 15.0015 29.1679 16.7395 29.1679 17.9977L29.1666 23.761C29.1666 23.9774 28.9763 24.1517 28.7415 24.1517Z" fill="#010000"/>
<path fill-rule="evenodd" clip-rule="evenodd" d="M69.5118 14.5205C67.8862 14.5205 67.7834 16.6474 67.7834 17.9746C67.7834 19.3017 67.7631 22.1388 69.4921 22.1388C71.2002 22.1388 71.2827 19.8509 71.2827 18.4555C71.2827 17.5405 71.2408 16.442 70.9527 15.5727C70.7059 14.8174 70.2116 14.5205 69.5118 14.5205ZM69.4921 12.3009C72.7643 12.3009 74.5339 15.0015 74.5339 18.433C74.5339 21.7493 72.579 24.3809 69.4921 24.3809C66.2809 24.3809 64.5315 21.681 64.5315 18.3184C64.5315 14.932 66.3012 12.3009 69.4921 12.3009Z" fill="#010000"/>
<path fill-rule="evenodd" clip-rule="evenodd" d="M78.7781 24.1517H76.5808C76.3606 24.1383 76.1855 23.9701 76.1855 23.7616L76.1817 12.8855C76.2007 12.6862 76.3835 12.5308 76.6056 12.5308L78.6506 12.5301C78.8435 12.5399 79.0021 12.6655 79.0427 12.8343V14.4974H79.0839C79.7019 13.0099 80.5655 12.3009 82.0883 12.3009C83.0763 12.3009 84.0439 12.6441 84.6613 13.5823C85.2374 14.4516 85.2374 15.9153 85.2374 16.9681V23.8097C85.2133 24.0024 85.0331 24.1517 84.8148 24.1517H82.6048C82.4005 24.1395 82.2362 23.995 82.2121 23.8097V17.9069C82.2121 16.7169 82.3567 14.9777 80.8333 14.9777C80.2984 14.9777 79.8041 15.3209 79.5573 15.847C79.2483 16.5109 79.207 17.1741 79.207 17.9069V23.761C79.2032 23.9774 79.0129 24.1517 78.7781 24.1517Z" fill="#010000"/>
<path fill-rule="evenodd" clip-rule="evenodd" d="M51.6225 24.1249C51.4772 24.2505 51.2671 24.259 51.1022 24.1743C50.37 23.5897 50.2386 23.3196 49.8382 22.7624C48.6282 23.9469 47.771 24.3023 46.2031 24.3023C44.3472 24.3023 42.9031 23.2013 42.9031 21.0006C42.9031 19.2809 43.8732 18.1117 45.2546 17.5387C46.4506 17.0339 48.1213 16.9425 49.4004 16.8047V16.5298C49.4004 16.0244 49.4417 15.4294 49.132 14.9936C48.8636 14.6034 48.3484 14.4431 47.8947 14.4431C47.0534 14.4431 46.3066 14.857 46.1226 15.7147C46.0839 15.9055 45.9392 16.0951 45.74 16.1049L43.6023 15.8824C43.4221 15.8428 43.2216 15.7038 43.273 15.4392C43.7584 12.9831 46.0414 12.2174 48.1162 12.1967H48.2799C49.3421 12.2095 50.6986 12.4893 51.5248 13.2507C52.5977 14.2139 52.4937 15.4977 52.4937 16.8968V20.1966C52.4937 21.1896 52.9232 21.6249 53.3261 22.1595C53.4676 22.3528 53.4987 22.5814 53.3191 22.7228C52.8686 23.0855 52.0685 23.753 51.6288 24.1298L51.6225 24.1249ZM49.4004 18.9603C49.4004 19.7857 49.4207 20.4733 48.988 21.2073C48.6371 21.8029 48.08 22.1699 47.4614 22.1699C46.6162 22.1699 46.1213 21.5511 46.1213 20.6337C46.1213 18.8292 47.8053 18.5013 49.4004 18.5013V18.9603Z" fill="#010000"/>
<path fill-rule="evenodd" clip-rule="evenodd" d="M22.72 24.1249C22.5741 24.2505 22.3634 24.259 22.1991 24.1743C21.4662 23.5897 21.3349 23.3196 20.9352 22.7624C19.7245 23.9469 18.8679 24.3023 17.3001 24.3023C15.4441 24.3023 14 23.2013 14 21.0006C14 19.2809 14.9689 18.1117 16.3515 17.5387C17.5475 17.0339 19.2182 16.9425 20.4967 16.8047V16.5298C20.4967 16.0244 20.5386 15.4294 20.229 14.9936C19.9606 14.6034 19.4447 14.4431 18.9917 14.4431C18.1503 14.4431 17.4022 14.857 17.2195 15.7147C17.1814 15.9055 17.0361 16.0951 16.8362 16.1049L14.6992 15.8824C14.5184 15.8428 14.3179 15.7038 14.3699 15.4392C14.854 12.9831 17.1376 12.2174 19.2131 12.1967H19.3768C20.439 12.2095 21.7956 12.4893 22.6217 13.2507C23.694 14.2139 23.5906 15.4977 23.5906 16.8968V20.1966C23.5906 21.1896 24.0201 21.6249 24.423 22.1595C24.5633 22.3528 24.5956 22.5814 24.4161 22.7228C23.9656 23.0855 23.1648 23.753 22.7251 24.1298L22.72 24.1249ZM20.4967 18.9603C20.4967 19.7857 20.5177 20.4733 20.0843 21.2073C19.734 21.8029 19.1769 22.1699 18.5577 22.1699C17.7125 22.1699 17.2176 21.5511 17.2176 20.6337C17.2176 18.8292 18.9022 18.5013 20.4967 18.5013V18.9603Z" fill="#010000"/>
<path fill-rule="evenodd" clip-rule="evenodd" d="M115.377 28.052C115.377 27.7764 115.377 27.5289 115.377 27.2534C115.377 27.026 115.493 26.8693 115.74 26.8834C116.201 26.9462 116.852 27.0089 117.315 26.9175C117.919 26.7968 118.352 26.3853 118.609 25.8214C118.97 25.0277 119.209 24.3876 119.36 23.9676L114.773 13.0507C114.696 12.8654 114.673 12.5216 115.058 12.5216H116.661C116.967 12.5216 117.092 12.7081 117.16 12.891L120.486 21.7584L123.66 12.891C123.725 12.7094 123.855 12.5216 124.158 12.5216H125.67C126.053 12.5216 126.031 12.8648 125.955 13.0507L121.405 24.3084C120.816 25.8068 120.032 28.1934 118.265 28.6079C117.38 28.8305 116.262 28.75 115.606 28.486C115.441 28.4062 115.377 28.1928 115.377 28.052Z" fill="#010000"/>
<path fill-rule="evenodd" clip-rule="evenodd" d="M113.238 23.4866C113.238 23.6896 113.065 23.8561 112.852 23.8561H111.722C111.477 23.8561 111.311 23.6866 111.279 23.4866L111.166 22.7472C110.646 23.1696 110.009 23.5409 109.317 23.7994C107.987 24.2956 106.454 24.3779 105.155 23.611C104.215 23.0569 103.716 21.9736 103.716 20.8562C103.716 19.9918 103.993 19.1346 104.608 18.5122C105.429 17.6618 106.618 17.2442 108.054 17.2442C108.921 17.2442 110.162 17.3424 111.065 17.6259V16.1378C111.065 14.6248 110.402 13.97 108.654 13.97C107.318 13.97 106.295 14.1639 104.873 14.5888C104.645 14.5961 104.512 14.4297 104.512 14.2267V13.3781C104.512 13.1745 104.693 12.9776 104.889 12.9179C105.905 12.4924 107.344 12.2272 108.873 12.1784C110.868 12.1784 113.238 12.6106 113.238 15.5575V23.4866ZM111.065 21.314V19.0688C110.306 18.8695 109.05 18.7866 108.564 18.7866C107.797 18.7866 106.956 18.9609 106.517 19.4151C106.189 19.7479 106.04 20.2258 106.04 20.6879C106.04 21.2853 106.255 21.8846 106.758 22.1809C107.342 22.5619 108.247 22.5155 109.098 22.2833C109.916 22.0602 110.684 21.6657 111.065 21.314Z" fill="#010000"/>
<path fill-rule="evenodd" clip-rule="evenodd" d="M96.5665 14.0035C99.0753 14.0035 99.7587 15.8988 99.7587 18.069C99.7727 19.5321 99.4929 20.8366 98.7042 21.5834C98.1141 22.1424 97.4548 22.2948 96.4624 22.2948C95.5792 22.2948 94.4174 21.8523 93.5494 21.2359V15.0307C94.453 14.3638 95.6059 14.0035 96.5665 14.0035ZM93.1649 28.4415H91.6503C91.4384 28.4415 91.2652 28.2751 91.2652 28.0721C91.2652 23.0184 91.2652 17.9642 91.2652 12.9105C91.2652 12.7075 91.4384 12.5411 91.6503 12.5411H92.8096C93.0532 12.5411 93.2201 12.7106 93.2512 12.9105L93.373 13.7048C94.4587 12.7788 95.8565 12.1851 97.1883 12.1851C100.919 12.1851 102.145 15.138 102.145 18.2086C102.145 21.4938 100.269 24.1334 97.0957 24.1334C95.7594 24.1334 94.5101 23.6597 93.5494 22.8368V28.0721C93.5494 28.2751 93.3762 28.4415 93.1649 28.4415Z" fill="#010000"/>
</g>
<defs>
<radialGradient id="paint0_radial_1_278" cx="0" cy="0" r="1" gradientUnits="userSpaceOnUse" gradientTransform="translate(89.1333 22.0661) rotate(172.833) scale(64.6719 1145.86)">
<stop stop-color="#FFE7A8"/>
<stop offset="1" stop-color="#F6C84B"/>
</radialGradient>
<clipPath id="clip0_1_278">
<rect width="140" height="40" rx="4" fill="white"/>
</clipPath>
</defs>
</svg>
