<svg width="140" height="40" viewBox="0 0 140 40" fill="none" xmlns="http://www.w3.org/2000/svg">
<rect width="140" height="40" rx="4" fill="black"/>
<path d="M57.559 14.0257C57.0994 14.5695 56.3641 14.9984 55.6288 14.9372C55.5369 14.2019 55.8969 13.4206 56.3181 12.9381C56.7777 12.3789 57.5819 11.9806 58.233 11.95C58.3096 12.7159 58.0109 13.4666 57.559 14.0257ZM58.2253 15.0827C57.1607 15.0214 56.2492 15.6878 55.7437 15.6878C55.2305 15.6878 54.4569 15.1133 53.6144 15.1286C52.5191 15.144 51.5004 15.7644 50.9413 16.7524C49.7924 18.7285 50.6426 21.6544 51.7532 23.2629C52.297 24.0595 52.948 24.9326 53.8059 24.902C54.6178 24.8713 54.9395 24.3735 55.9198 24.3735C56.9079 24.3735 57.1913 24.902 58.0492 24.8867C58.9376 24.8713 59.4968 24.0901 60.0406 23.2935C60.661 22.3897 60.9138 21.5089 60.9291 21.4629C60.9138 21.4476 59.2134 20.7966 59.1981 18.8358C59.1827 17.1967 60.5384 16.4154 60.5997 16.3695C59.8338 15.2359 58.6389 15.1133 58.2253 15.0827ZM64.3758 12.8615V24.8024H66.2293V20.72H68.7952C71.139 20.72 72.7858 19.1115 72.7858 16.7831C72.7858 14.4546 71.1696 12.8615 68.8565 12.8615H64.3758ZM66.2293 14.424H68.3663C69.9748 14.424 70.8939 15.2818 70.8939 16.7907C70.8939 18.2996 69.9748 19.1651 68.3586 19.1651H66.2293V14.424ZM76.1712 24.8943C77.3354 24.8943 78.4154 24.3046 78.9056 23.3701H78.9439V24.8024H80.6596V18.8588C80.6596 17.1354 79.2809 16.0248 77.1592 16.0248C75.1908 16.0248 73.7355 17.1507 73.6819 18.6979H75.3516C75.4895 17.9626 76.1712 17.4801 77.1056 17.4801C78.2392 17.4801 78.8749 18.0086 78.8749 18.9813V19.64L76.5618 19.7779C74.4095 19.9081 73.2453 20.7889 73.2453 22.3208C73.2453 23.868 74.4478 24.8943 76.1712 24.8943ZM76.669 23.4773C75.681 23.4773 75.0529 23.0025 75.0529 22.2748C75.0529 21.5242 75.658 21.0876 76.8146 21.0187L78.8749 20.8885V21.5625C78.8749 22.6808 77.9252 23.4773 76.669 23.4773ZM82.9497 28.05C84.7573 28.05 85.6075 27.3606 86.3505 25.2696L89.6057 16.1397H87.7215L85.5386 23.1939H85.5003L83.3174 16.1397H81.3796L84.5199 24.8331L84.3514 25.3615C84.068 26.2577 83.6084 26.6024 82.7889 26.6024C82.6433 26.6024 82.36 26.587 82.2451 26.5717V28.004C82.3523 28.0347 82.8119 28.05 82.9497 28.05Z" fill="white"/>
</svg>
