<svg width="140" height="40" viewBox="0 0 140 40" fill="none" xmlns="http://www.w3.org/2000/svg">
<rect width="140" height="40" rx="4" fill="black"/>
<path d="M68.6089 19.7802V25.407H66.7112V11.5113H71.7443C72.345 11.4995 72.9423 11.5997 73.5017 11.8062C74.0611 12.0126 74.5715 12.3213 75.0034 12.7142C75.4396 13.0834 75.7869 13.536 76.0217 14.0419C76.2565 14.5477 76.3735 15.0949 76.3648 15.6468C76.3773 16.2017 76.2621 16.7525 76.0271 17.2615C75.7921 17.7706 75.4429 18.2258 75.0034 18.596C74.1233 19.3855 73.0369 19.7798 71.7443 19.7791H68.6089V19.7802ZM68.6089 13.222V18.0727H71.7914C72.1403 18.0825 72.4875 18.0236 72.8108 17.8999C73.1342 17.7762 73.4265 17.5903 73.6691 17.3543C73.9104 17.1336 74.1023 16.8696 74.2333 16.5779C74.3643 16.2863 74.4318 15.9729 74.4318 15.6563C74.4318 15.3396 74.3643 15.0262 74.2333 14.7346C74.1023 14.4429 73.9104 14.1789 73.6691 13.9582C73.4295 13.7172 73.1382 13.5268 72.8145 13.3997C72.4908 13.2726 72.1421 13.2117 71.7914 13.2209H68.6089V13.222Z" fill="white"/>
<path d="M80.7378 15.5892C82.1405 15.5892 83.2477 15.9418 84.0594 16.6469C84.8711 17.3521 85.2766 18.3189 85.2758 19.5474V25.407H83.4606V24.0876H83.3781C82.5923 25.1742 81.5472 25.7174 80.2427 25.7174C79.1293 25.7174 78.1977 25.407 77.448 24.7861C77.0883 24.5011 76.8006 24.1442 76.6061 23.7414C76.4116 23.3387 76.315 22.9001 76.3235 22.4578C76.3235 21.474 76.7188 20.6916 77.5093 20.1106C78.2998 19.5296 79.3552 19.2384 80.6753 19.2369C81.8022 19.2369 82.7302 19.4309 83.4594 19.819V19.411C83.4616 19.1094 83.3924 18.8112 83.2568 18.5379C83.1212 18.2647 82.9227 18.0232 82.6756 17.831C82.1738 17.4052 81.5197 17.1728 80.8439 17.1802C79.7838 17.1802 78.945 17.6008 78.3273 18.442L76.6559 17.4519C77.5753 16.2101 78.936 15.5892 80.7378 15.5892ZM78.2826 22.4966C78.2813 22.7238 78.3377 22.9479 78.4472 23.1504C78.5567 23.3529 78.7161 23.5279 78.912 23.6607C79.3317 23.9713 79.8526 24.1358 80.3865 24.1264C81.1874 24.1251 81.955 23.8253 82.5212 23.2926C83.1498 22.7361 83.4642 22.083 83.4642 21.3335C82.8724 20.89 82.0473 20.6683 80.9889 20.6683C80.218 20.6683 79.5752 20.8431 79.0605 21.1927C78.5407 21.5475 78.2826 21.9788 78.2826 22.4966V22.4966Z" fill="white"/>
<path d="M95.6956 15.8996L89.3589 29.598H87.3999L89.7514 24.8049L85.5847 15.8996H87.6474L90.659 22.7294H90.7002L93.6293 15.8996H95.6956Z" fill="white"/>
<path d="M60.9403 18.5672C60.941 18.0232 60.8921 17.4802 60.7941 16.9441H52.7907V20.0186H57.3747C57.2809 20.5096 57.0823 20.9777 56.791 21.3946C56.4997 21.8115 56.1217 22.1687 55.6797 22.4445V24.4402H58.4155C60.0173 23.0509 60.9403 20.9965 60.9403 18.5672Z" fill="#4285F4"/>
<path d="M52.7907 26.3682C55.0809 26.3682 57.0093 25.6609 58.4155 24.4413L55.6797 22.4456C54.9183 22.9312 53.9376 23.2084 52.7907 23.2084C50.5771 23.2084 48.6982 21.8047 48.0264 19.9132H45.2081V21.9699C45.9144 23.2921 46.9976 24.4035 48.3365 25.1802C49.6755 25.9569 51.2176 26.3682 52.7907 26.3682V26.3682Z" fill="#34A853"/>
<path d="M48.0264 19.9132C47.6712 18.9221 47.6712 17.8487 48.0264 16.8576V14.8009H45.2081C44.6138 15.9131 44.3044 17.1406 44.3044 18.3854C44.3044 19.6302 44.6138 20.8577 45.2081 21.9699L48.0264 19.9132Z" fill="#FBBC04"/>
<path d="M52.7907 13.5624C54.001 13.5438 55.1704 13.974 56.0463 14.7599L58.4685 12.4814C56.9326 11.1244 54.8978 10.3794 52.7907 10.4026C51.2176 10.4026 49.6755 10.814 48.3365 11.5906C46.9976 12.3673 45.9144 13.4788 45.2081 14.8009L48.0264 16.8576C48.6982 14.9661 50.5771 13.5624 52.7907 13.5624Z" fill="#EA4335"/>
</svg>
