<svg width="140" height="40" viewBox="0 0 140 40" fill="none" xmlns="http://www.w3.org/2000/svg">
<rect width="140" height="40" rx="4" fill="#5A31F4"/>
<path d="M45.6097 15.9185C44.8191 14.3157 43.2774 13.3092 40.9847 13.3092C40.2731 13.3092 39.6011 13.4956 38.9686 13.7938C38.3361 14.092 37.7827 14.5393 37.3874 15.0611L37.3084 15.173V8.91087C37.3084 8.8736 37.3084 8.83632 37.2688 8.79905C37.1898 8.76177 37.1502 8.76177 37.1107 8.76177H33.8692C33.8297 8.76177 33.7902 8.76177 33.7506 8.79905C33.7111 8.83632 33.7111 8.8736 33.7111 8.91087V26.8398C33.7111 26.8771 33.7111 26.9144 33.7506 26.9517C33.7902 26.9889 33.8297 26.9889 33.8692 26.9889H37.3479C37.3874 26.9889 37.4269 26.9889 37.4665 26.9517C37.506 26.9144 37.506 26.8771 37.506 26.8398V19.1986C37.506 17.7076 38.5733 16.6639 40.2336 16.6639C42.0915 16.6639 42.5264 18.0804 42.5264 19.5341V26.8398C42.5264 26.8771 42.5264 26.9144 42.5659 26.9517C42.6054 26.9889 42.645 26.9889 42.6845 26.9889H46.1632C46.2027 26.9889 46.2422 26.9889 46.2818 26.9517C46.3213 26.9144 46.3213 26.8771 46.3213 26.8398V19.0868C46.3213 18.8259 46.3213 18.5649 46.2818 18.304C46.2027 17.484 45.9655 16.6639 45.6097 15.9185Z" fill="white"/>
<path d="M28.1768 18.5649C28.1768 18.5649 26.398 18.1549 25.7655 18.0058C25.0935 17.8567 23.9866 17.5213 23.9866 16.7012C23.9866 15.8812 24.8958 15.6203 25.8446 15.6203C26.7933 15.6203 27.8211 15.8439 27.9001 16.813C27.9001 16.8503 27.9397 16.8876 27.9397 16.8876C27.9792 16.9249 28.0187 16.9249 28.0583 16.9249H31.4974C31.5369 16.9249 31.5369 16.9249 31.5369 16.9249L31.5765 16.8876L31.616 16.8503C31.616 16.8503 31.616 16.813 31.616 16.7758C31.4183 13.6447 28.4931 12.5265 25.805 12.5265C22.6031 12.5265 20.2708 14.502 20.2708 16.7012C20.2708 18.304 20.7451 19.795 24.5005 20.8387C25.1725 21.0251 26.0422 21.2487 26.8328 21.4723C27.7815 21.7333 28.2954 22.106 28.2954 22.7024C28.2954 23.3733 27.2281 23.8579 26.2003 23.8579C24.6982 23.8579 23.6309 23.3361 23.5518 22.4042C23.5518 22.3669 23.5123 22.3297 23.5123 22.3297C23.4727 22.2924 23.4332 22.2924 23.3937 22.2924H19.9545C19.915 22.2924 19.915 22.2924 19.915 22.2924C19.915 22.2924 19.8755 22.2924 19.8755 22.3297L19.8359 22.3669V22.4042C19.9941 25.3489 23.0379 26.9517 25.8446 26.9517C30.0348 26.9517 31.9322 24.7152 31.9322 22.6278C31.9718 21.6587 31.7346 19.4223 28.1768 18.5649Z" fill="white"/>
<path d="M72.4509 13.272C70.7115 13.272 69.2489 14.1666 68.3002 15.2848V13.3838C68.3002 13.3465 68.3002 13.3092 68.2607 13.272C68.2211 13.2347 68.1816 13.2347 68.1816 13.2347H64.9006C64.8611 13.2347 64.8215 13.2347 64.782 13.272C64.7425 13.3092 64.7425 13.3465 64.7425 13.3838V30.9773C64.7425 31.0146 64.7425 31.0519 64.782 31.0519C64.8215 31.0891 64.8611 31.0891 64.9006 31.0891H68.3793C68.4188 31.0891 68.4583 31.0891 68.4583 31.0519C68.4583 31.0146 68.4978 30.9773 68.4978 30.9773V25.237H68.5374C69.0908 26.0198 70.593 26.9889 72.5695 26.9889C76.2853 26.9889 79.4082 24.0815 79.4082 20.1305C79.4478 16.3657 76.3644 13.272 72.4509 13.272ZM72.1346 23.6343C71.3836 23.6343 70.672 23.4479 70.0395 23.0751C69.4071 22.7024 68.9327 22.1806 68.6164 21.5096C68.3397 20.8759 68.2211 20.1677 68.3793 19.4968C68.4978 18.8259 68.8536 18.1922 69.3675 17.6704C69.8814 17.1858 70.5534 16.813 71.265 16.7012C71.9765 16.5521 72.7276 16.6267 73.3996 16.8876C74.0716 17.1485 74.6646 17.5958 75.0599 18.1549C75.4552 18.714 75.6924 19.4222 75.6924 20.0932C75.6924 20.5405 75.6133 20.9878 75.4157 21.4351C75.2575 21.8451 74.9808 22.2551 74.6251 22.5533C74.3088 22.8888 73.874 23.1497 73.4391 23.2988C73.0834 23.5224 72.609 23.6343 72.1346 23.6343Z" fill="white"/>
<path d="M54.3855 12.5265C51.144 12.5265 49.5233 13.5702 48.2188 14.3902L48.1792 14.4275C48.1002 14.4648 48.0606 14.5393 48.0606 14.6139C48.0606 14.6884 48.0606 14.763 48.1002 14.8375L49.4047 16.9249C49.4442 16.9621 49.4442 16.9994 49.4837 17.0367C49.5233 17.074 49.5628 17.074 49.6023 17.074C49.6419 17.074 49.6814 17.074 49.7604 17.074C49.8 17.074 49.8395 17.0367 49.879 16.9994L49.9976 16.9249C50.6696 16.403 51.737 15.6948 54.346 15.5084C55.8086 15.3966 57.034 15.7694 57.9828 16.5521C59.0106 17.4467 59.6035 18.8631 59.6035 20.3541C59.6035 23.1124 57.8642 24.8643 55.097 24.9016C52.8043 24.9016 51.2626 23.7461 51.2626 22.106C51.2626 21.2114 51.6974 20.6523 52.5276 20.0559C52.6066 20.0186 52.6462 19.9441 52.6462 19.8695C52.6462 19.795 52.6462 19.7204 52.6066 19.6459L51.4603 17.5958C51.4207 17.5585 51.4207 17.5213 51.3812 17.484C51.3417 17.4467 51.3021 17.4467 51.2626 17.4094C51.2231 17.4094 51.1835 17.4094 51.144 17.4094C51.1045 17.4094 51.0649 17.4467 51.0254 17.4467C49.7209 18.1549 48.1397 19.4968 48.2188 22.0687C48.3373 25.3116 51.1835 27.809 54.8994 27.8835H55.097H55.3342C59.7616 27.7344 62.9636 24.6407 62.9636 20.4659C62.8845 16.6639 59.9198 12.5265 54.3855 12.5265Z" fill="white"/>
<path d="M93.2044 14.502H90.9907C90.9511 14.502 90.8721 14.5393 90.8325 14.5393C90.793 14.5766 90.793 14.6139 90.793 14.6884V19.0868C90.793 19.1241 90.8325 19.1986 90.8325 19.1986C90.8721 19.2359 90.9116 19.2359 90.9907 19.2359H93.2044C94.5484 19.2359 95.5366 18.2295 95.5366 16.8503C95.5366 15.5084 94.5484 14.502 93.2044 14.502Z" fill="white"/>
<path d="M100.004 22.2551C100.004 22.8888 100.557 23.2615 101.585 23.2615C102.929 23.2615 103.719 22.5906 103.719 21.3605V21.025L101.703 21.1369C100.636 21.1369 100.004 21.5469 100.004 22.2551Z" fill="white"/>
<path d="M116.448 8.79905H86.6423C86.1679 8.79905 85.6541 8.8736 85.2192 9.05997C84.7844 9.24634 84.3495 9.50726 83.9938 9.80546C83.638 10.1409 83.3613 10.5137 83.2032 10.961C83.0055 11.371 82.9265 11.8555 82.9265 12.3028V27.6972C82.9265 28.629 83.3218 29.5236 84.0333 30.1945C84.7449 30.8655 85.6936 31.2382 86.6818 31.2382H116.448C116.923 31.2382 117.436 31.1637 117.871 30.9773C118.306 30.7909 118.741 30.53 119.097 30.2318C119.453 29.8963 119.729 29.5236 119.887 29.0763C120.085 28.6663 120.164 28.1817 120.164 27.7344V12.3028C120.164 11.8555 120.085 11.371 119.887 10.961C119.69 10.5509 119.413 10.1409 119.097 9.80546C118.741 9.46999 118.346 9.20907 117.871 9.05997C117.397 8.91087 116.923 8.79905 116.448 8.79905ZM93.3229 20.9878H90.9907C90.9511 20.9878 90.8721 21.025 90.8325 21.025C90.793 21.0623 90.793 21.0996 90.793 21.1741V24.3052C90.793 24.3425 90.7535 24.417 90.7535 24.4543C90.7139 24.4916 90.6744 24.4916 90.5954 24.4916H88.9351C88.8955 24.4916 88.8165 24.4543 88.777 24.4543C88.7374 24.417 88.7374 24.3797 88.7374 24.3052V12.9738C88.7374 12.9365 88.777 12.862 88.777 12.8247C88.8165 12.7874 88.856 12.7874 88.9351 12.7874H93.3229C95.8134 12.7874 97.5922 14.502 97.5922 16.8876C97.5922 19.2731 95.8134 20.9878 93.3229 20.9878ZM105.656 24.3052C105.656 24.3425 105.656 24.3425 105.656 24.3797C105.656 24.417 105.617 24.417 105.617 24.4543C105.617 24.4543 105.577 24.4916 105.538 24.4916C105.498 24.4916 105.498 24.4916 105.459 24.4916H103.917C103.878 24.4916 103.878 24.4916 103.838 24.4916C103.798 24.4916 103.798 24.4543 103.759 24.4543C103.759 24.4543 103.719 24.417 103.719 24.3797C103.719 24.3425 103.719 24.3425 103.719 24.3052V23.9697C103.719 23.9324 103.719 23.8952 103.68 23.8952C103.68 23.8579 103.64 23.8579 103.601 23.8579C103.561 23.8579 103.522 23.8579 103.522 23.8579C103.482 23.8579 103.482 23.8952 103.443 23.8952C102.968 24.3797 102.217 24.7152 101.031 24.7152C99.2525 24.7152 98.0666 23.8579 98.0666 22.3296C98.0666 21.9569 98.1457 21.5842 98.3038 21.2487C98.4619 20.9132 98.7386 20.615 99.0549 20.4287C99.6873 19.9814 100.676 19.7577 102.178 19.6832L103.759 19.6459V19.1986C103.759 18.3413 103.126 17.9685 102.138 17.9685C101.15 17.9685 100.517 18.304 100.359 18.8259C100.359 18.8631 100.32 18.9004 100.28 18.9377C100.241 18.975 100.201 18.975 100.162 18.975H98.62C98.5805 18.975 98.5805 18.975 98.541 18.975C98.5014 18.975 98.5014 18.9377 98.4619 18.9377C98.4619 18.9004 98.4224 18.9004 98.4224 18.8631C98.4224 18.8259 98.4224 18.8259 98.4224 18.7886C98.6595 17.484 99.7664 16.5148 102.178 16.5148C104.747 16.5148 105.656 17.6331 105.656 19.795V24.3052ZM115.381 16.9621L111.902 25.6843C111.112 27.6972 109.728 28.219 108.226 28.219C107.949 28.219 107.672 28.1817 107.396 28.1072C107.356 28.1072 107.317 28.0699 107.277 28.0326C107.238 27.9954 107.238 27.9581 107.238 27.9208V26.5789C107.238 26.5417 107.238 26.5417 107.238 26.5044C107.238 26.4671 107.277 26.4671 107.277 26.4298C107.317 26.4298 107.317 26.3926 107.356 26.3926C107.396 26.3926 107.396 26.3926 107.435 26.3926C107.672 26.4298 107.91 26.4671 108.147 26.4671C108.582 26.5044 108.977 26.3553 109.333 26.1316C109.689 25.908 109.926 25.5725 110.044 25.1998L110.163 24.9016C110.163 24.8643 110.163 24.827 110.163 24.7898L106.921 16.9621C106.921 16.9249 106.921 16.8876 106.921 16.8876C106.921 16.8503 106.921 16.813 106.961 16.813C106.961 16.7758 107 16.7758 107.04 16.7385C107.08 16.7385 107.08 16.7012 107.119 16.7012H108.7C108.74 16.7012 108.779 16.7012 108.819 16.7385C108.858 16.7758 108.858 16.7758 108.898 16.813L111.112 22.3669C111.112 22.4042 111.151 22.4415 111.191 22.4415C111.23 22.4787 111.27 22.4787 111.309 22.4787C111.349 22.4787 111.388 22.4787 111.428 22.4415C111.467 22.4042 111.507 22.4042 111.507 22.3669L113.404 16.8503C113.404 16.813 113.444 16.7758 113.483 16.7385C113.523 16.7012 113.562 16.7012 113.602 16.7012H115.223C115.262 16.7012 115.302 16.7012 115.302 16.7385C115.341 16.7385 115.341 16.7758 115.381 16.813C115.381 16.8503 115.42 16.8503 115.42 16.8876C115.381 16.8876 115.381 16.9249 115.381 16.9621Z" fill="white"/>
</svg>
