<svg width="140" height="40" viewBox="0 0 140 40" fill="none" xmlns="http://www.w3.org/2000/svg">
<rect width="140" height="40" rx="4" fill="#FFC43A"/>
<path d="M56.7626 13.4146H50.9526C50.5551 13.4146 50.217 13.6831 50.1549 14.0479L47.8051 27.8953C47.7584 28.1686 47.9861 28.4149 48.2843 28.4149H51.058C51.4556 28.4149 51.7937 28.1464 51.8557 27.7809L52.4894 24.046C52.5506 23.6804 52.8896 23.4119 53.2863 23.4119H55.1255C58.9527 23.4119 61.1614 21.6906 61.7383 18.2794C61.9982 16.7871 61.7493 15.6145 60.9975 14.7933C60.1717 13.8915 58.7071 13.4146 56.7626 13.4146ZM57.4329 18.4721C57.1151 20.4098 55.5223 20.4098 53.9821 20.4098H53.1054L53.7204 16.791C53.7569 16.5723 53.9608 16.4112 54.1987 16.4112H54.6005C55.6497 16.4112 56.6394 16.4112 57.1508 16.9671C57.4558 17.2987 57.5492 17.7914 57.4329 18.4721Z" fill="#253B80"/>
<path d="M74.1295 18.4097H71.3473C71.1103 18.4097 70.9056 18.5708 70.8691 18.7895L70.7459 19.5128L70.5513 19.2507C69.949 18.4381 68.6059 18.1665 67.2654 18.1665C64.1909 18.1665 61.565 20.3308 61.0536 23.3669C60.7877 24.8814 61.1657 26.3295 62.09 27.3395C62.9379 28.268 64.151 28.6549 65.5943 28.6549C68.0716 28.6549 69.4452 27.1744 69.4452 27.1744L69.3212 27.893C69.2745 28.1678 69.5022 28.4141 69.7986 28.4141H72.3048C72.7032 28.4141 73.0396 28.1456 73.1025 27.7801L74.6061 18.9293C74.6537 18.6569 74.4269 18.4097 74.1295 18.4097ZM70.2514 23.4427C69.983 24.9201 68.7214 25.9118 67.1124 25.9118C66.3045 25.9118 65.6589 25.671 65.2443 25.2146C64.8332 24.7614 64.6768 24.1163 64.8077 23.3977C65.0583 21.933 66.3411 20.9088 67.9254 20.9088C68.7155 20.9088 69.3577 21.1528 69.7808 21.6132C70.2047 22.0783 70.3729 22.7273 70.2514 23.4427Z" fill="#253B80"/>
<path d="M88.9469 18.4097H86.1511C85.8844 18.4097 85.6338 18.5329 85.4825 18.739L81.6265 24.0183L79.992 18.9451C79.8893 18.6276 79.5741 18.4097 79.2173 18.4097H76.4699C76.136 18.4097 75.9041 18.7129 76.0103 19.0051L79.0898 27.405L76.1946 31.2038C75.967 31.5031 76.1963 31.9145 76.5897 31.9145H79.3821C79.6471 31.9145 79.8952 31.7945 80.0456 31.5923L89.3445 19.1164C89.5671 18.8179 89.3386 18.4097 88.9469 18.4097Z" fill="#253B80"/>
<path d="M98.2034 13.4146H92.3927C91.9959 13.4146 91.6578 13.6831 91.5958 14.0479L89.246 27.8953C89.1993 28.1686 89.427 28.4149 89.7234 28.4149H92.7053C92.9822 28.4149 93.2193 28.227 93.2626 27.9711L93.9295 24.046C93.9906 23.6804 94.3296 23.4119 94.7263 23.4119H96.5647C100.393 23.4119 102.601 21.6906 103.178 18.2794C103.439 16.7871 103.188 15.6145 102.437 14.7933C101.612 13.8915 100.148 13.4146 98.2034 13.4146ZM98.8737 18.4721C98.5568 20.4098 96.964 20.4098 95.4229 20.4098H94.5471L95.163 16.791C95.1995 16.5723 95.4017 16.4112 95.6404 16.4112H96.0422C97.0906 16.4112 98.0811 16.4112 98.5925 16.9671C98.8975 17.2987 98.9901 17.7914 98.8737 18.4721Z" fill="#179BD7"/>
<path d="M115.57 18.4097H112.789C112.55 18.4097 112.347 18.5708 112.312 18.7895L112.188 19.5128L111.993 19.2507C111.391 18.4381 110.048 18.1665 108.708 18.1665C105.633 18.1665 103.008 20.3308 102.497 23.3669C102.232 24.8814 102.608 26.3295 103.533 27.3395C104.382 28.268 105.593 28.6549 107.037 28.6549C109.514 28.6549 110.888 27.1744 110.888 27.1744L110.764 27.893C110.717 28.1678 110.945 28.4141 111.243 28.4141H113.748C114.145 28.4141 114.483 28.1456 114.545 27.7801L116.05 18.9293C116.095 18.6569 115.868 18.4097 115.57 18.4097ZM111.691 23.4427C111.425 24.9201 110.161 25.9118 108.552 25.9118C107.746 25.9118 107.099 25.671 106.684 25.2146C106.273 24.7614 106.119 24.1163 106.248 23.3977C106.5 21.933 107.781 20.9088 109.365 20.9088C110.155 20.9088 110.798 21.1528 111.221 21.6132C111.646 22.0783 111.815 22.7273 111.691 23.4427Z" fill="#179BD7"/>
<path d="M118.85 13.7944L116.465 27.8953C116.418 28.1686 116.646 28.4149 116.942 28.4149H119.34C119.738 28.4149 120.076 28.1464 120.137 27.7809L122.489 13.9342C122.536 13.661 122.308 13.4138 122.012 13.4138H119.327C119.09 13.4146 118.886 13.5757 118.85 13.7944Z" fill="#179BD7"/>
<path d="M23.6776 31.1059L24.1219 28.4828L23.1322 28.4615H18.4063L21.6906 9.1057C21.7008 9.04727 21.7339 8.99278 21.7823 8.95409C21.8308 8.9154 21.8928 8.89408 21.9573 8.89408H29.9259C32.5714 8.89408 34.397 9.40575 35.3502 10.4157C35.797 10.8894 36.0816 11.3845 36.2192 11.9294C36.3637 12.501 36.3662 13.1841 36.2252 14.0171L36.215 14.0779V14.6117L36.6618 14.847C37.0382 15.0325 37.3372 15.2449 37.5666 15.4881C37.9489 15.8932 38.1961 16.408 38.3006 17.0184C38.4085 17.6462 38.3728 18.3931 38.1961 19.2388C37.9922 20.2116 37.6626 21.0589 37.2174 21.7522C36.808 22.391 36.2864 22.9208 35.667 23.3314C35.0758 23.7215 34.3732 24.0176 33.5789 24.2071C32.8092 24.3934 31.9317 24.4874 30.9692 24.4874H30.349C29.9055 24.4874 29.4748 24.6358 29.1367 24.9019C28.7978 25.1736 28.5735 25.5447 28.5047 25.9505L28.4579 26.1866L27.673 30.8098L27.6373 30.9796C27.628 31.0333 27.6118 31.0601 27.588 31.0783C27.5668 31.0949 27.5362 31.1059 27.5065 31.1059H23.6776Z" fill="#253B80"/>
<path d="M37.085 14.1395C37.0612 14.2808 37.034 14.4253 37.0034 14.5738C35.9526 19.5886 32.3574 21.321 27.7657 21.321H25.4277C24.8662 21.321 24.393 21.7 24.3055 22.2149L23.1085 29.2709L22.7696 31.271C22.7127 31.6089 22.993 31.9137 23.36 31.9137H27.5065C27.9976 31.9137 28.4147 31.5821 28.492 31.132L28.5328 30.9362L29.3135 26.3311L29.3636 26.0785C29.4401 25.6268 29.858 25.2952 30.3491 25.2952H30.9692C34.9867 25.2952 38.1316 23.7791 39.0508 19.392C39.4348 17.5593 39.236 16.029 38.22 14.9528C37.9124 14.6283 37.531 14.359 37.085 14.1395Z" fill="#179BD7"/>
<path d="M35.9857 13.7321C35.8251 13.6886 35.6594 13.6491 35.4895 13.6136C35.3188 13.5789 35.1438 13.5481 34.9637 13.5212C34.3333 13.4265 33.6427 13.3815 32.9027 13.3815H26.657C26.5032 13.3815 26.3571 13.4138 26.2263 13.4723C25.9383 13.601 25.7242 13.8544 25.6724 14.1648L24.3437 21.9867L24.3055 22.2149C24.393 21.7 24.8662 21.321 25.4277 21.321H27.7656C32.3573 21.321 35.9525 19.5878 37.0034 14.5738C37.0348 14.4253 37.0612 14.2808 37.085 14.1395C36.819 14.0084 36.5311 13.8963 36.221 13.8007C36.1445 13.7771 36.0655 13.7542 35.9857 13.7321Z" fill="#222D65"/>
<path d="M25.6723 14.1648C25.7242 13.8544 25.9382 13.601 26.2262 13.4731C26.3579 13.4146 26.5032 13.3822 26.6569 13.3822H32.9027C33.6426 13.3822 34.3333 13.4273 34.9636 13.522C35.1437 13.5489 35.3187 13.5797 35.4895 13.6144C35.6594 13.6499 35.8251 13.6894 35.9856 13.7328C36.0655 13.7549 36.1445 13.7778 36.2218 13.8007C36.5319 13.8963 36.8199 14.0092 37.0858 14.1395C37.3984 12.2863 37.0832 11.0245 36.0052 9.88189C34.8167 8.62403 32.6716 8.08552 29.9268 8.08552H21.9582C21.3975 8.08552 20.9192 8.46453 20.8326 8.98015L17.5135 28.5349C17.448 28.9218 17.7692 29.2709 18.1888 29.2709H23.1085L24.3437 21.9867L25.6723 14.1648Z" fill="#253B80"/>
</svg>
